<mxfile host="Electron" modified="2024-10-29T10:28:16.128Z" agent="Mozilla/5.0 (X11; Linux x86_64) AppleWebKit/537.36 (KHTML, like Gecko) draw.io/24.6.4 Chrome/124.0.6367.207 Electron/30.0.6 Safari/537.36" etag="64qS_pkFpmekQ1vx7bls" version="24.6.4" type="device">
  <diagram name="Page-1" id="qJXgZPAsjcloaxcsCQsC">
    <mxGraphModel dx="358" dy="685" grid="1" gridSize="10" guides="1" tooltips="1" connect="1" arrows="1" fold="1" page="1" pageScale="1" pageWidth="827" pageHeight="1169" math="0" shadow="0">
      <root>
        <mxCell id="0" />
        <mxCell id="1" parent="0" />
        <mxCell id="kpo0mLoOp0xEjTUwXcK9-1" value="Cytokine X" style="rounded=1;whiteSpace=wrap;html=1;fontSize=18;" parent="1" vertex="1">
          <mxGeometry x="1000" y="210" width="120" height="60" as="geometry" />
        </mxCell>
        <mxCell id="kpo0mLoOp0xEjTUwXcK9-2" value="" style="endArrow=classic;html=1;rounded=0;" parent="1" edge="1">
          <mxGeometry width="50" height="50" relative="1" as="geometry">
            <mxPoint x="920" y="230" as="sourcePoint" />
            <mxPoint x="1000" y="230" as="targetPoint" />
          </mxGeometry>
        </mxCell>
        <mxCell id="kpo0mLoOp0xEjTUwXcK9-13" value="ka&lt;sub&gt;x&lt;/sub&gt;" style="edgeLabel;html=1;align=center;verticalAlign=middle;resizable=0;points=[];" parent="kpo0mLoOp0xEjTUwXcK9-2" vertex="1" connectable="0">
          <mxGeometry x="0.1167" y="1" relative="1" as="geometry">
            <mxPoint x="-5" y="1" as="offset" />
          </mxGeometry>
        </mxCell>
        <mxCell id="kpo0mLoOp0xEjTUwXcK9-3" value="" style="endArrow=classic;html=1;rounded=0;" parent="1" edge="1">
          <mxGeometry width="50" height="50" relative="1" as="geometry">
            <mxPoint x="1120" y="239.8" as="sourcePoint" />
            <mxPoint x="1200" y="239.8" as="targetPoint" />
          </mxGeometry>
        </mxCell>
        <mxCell id="kpo0mLoOp0xEjTUwXcK9-16" value="kd" style="edgeLabel;html=1;align=center;verticalAlign=middle;resizable=0;points=[];fontStyle=2" parent="kpo0mLoOp0xEjTUwXcK9-3" vertex="1" connectable="0">
          <mxGeometry x="0.075" y="-1" relative="1" as="geometry">
            <mxPoint x="-3" y="-1" as="offset" />
          </mxGeometry>
        </mxCell>
        <mxCell id="kpo0mLoOp0xEjTUwXcK9-7" value="Cytokine X" style="rounded=1;whiteSpace=wrap;html=1;fontSize=18;" parent="1" vertex="1">
          <mxGeometry x="1420" y="330" width="120" height="60" as="geometry" />
        </mxCell>
        <mxCell id="kpo0mLoOp0xEjTUwXcK9-8" value="" style="endArrow=classic;html=1;rounded=0;" parent="1" edge="1">
          <mxGeometry width="50" height="50" relative="1" as="geometry">
            <mxPoint x="1540" y="359.8" as="sourcePoint" />
            <mxPoint x="1620" y="359.8" as="targetPoint" />
          </mxGeometry>
        </mxCell>
        <mxCell id="kpo0mLoOp0xEjTUwXcK9-17" value="kd&lt;sub&gt;2&lt;/sub&gt;" style="edgeLabel;html=1;align=center;verticalAlign=middle;resizable=0;points=[];fontStyle=2" parent="kpo0mLoOp0xEjTUwXcK9-8" vertex="1" connectable="0">
          <mxGeometry x="-0.0347" y="-1" relative="1" as="geometry">
            <mxPoint as="offset" />
          </mxGeometry>
        </mxCell>
        <mxCell id="kpo0mLoOp0xEjTUwXcK9-9" value="" style="endArrow=classic;html=1;rounded=0;" parent="1" edge="1">
          <mxGeometry width="50" height="50" relative="1" as="geometry">
            <mxPoint x="920" y="250" as="sourcePoint" />
            <mxPoint x="1000" y="250" as="targetPoint" />
          </mxGeometry>
        </mxCell>
        <mxCell id="kpo0mLoOp0xEjTUwXcK9-15" value="kbasal&lt;sub&gt;x&lt;/sub&gt;" style="edgeLabel;html=1;align=center;verticalAlign=middle;resizable=0;points=[];" parent="kpo0mLoOp0xEjTUwXcK9-9" vertex="1" connectable="0">
          <mxGeometry x="-0.0083" relative="1" as="geometry">
            <mxPoint as="offset" />
          </mxGeometry>
        </mxCell>
        <mxCell id="kpo0mLoOp0xEjTUwXcK9-19" value="Mask appliction" style="rounded=1;whiteSpace=wrap;html=1;fontSize=18;" parent="1" vertex="1">
          <mxGeometry x="850" y="70" width="120" height="60" as="geometry" />
        </mxCell>
        <mxCell id="kpo0mLoOp0xEjTUwXcK9-20" value="" style="curved=1;endArrow=classic;html=1;rounded=0;exitX=0.5;exitY=1;exitDx=0;exitDy=0;" parent="1" source="kpo0mLoOp0xEjTUwXcK9-19" edge="1">
          <mxGeometry width="50" height="50" relative="1" as="geometry">
            <mxPoint x="910" y="260" as="sourcePoint" />
            <mxPoint x="980" y="230" as="targetPoint" />
            <Array as="points">
              <mxPoint x="910" y="170" />
              <mxPoint x="980" y="180" />
            </Array>
          </mxGeometry>
        </mxCell>
        <mxCell id="kpo0mLoOp0xEjTUwXcK9-23" value="Cytokine X&lt;div&gt;(pre-state)&lt;/div&gt;" style="rounded=1;whiteSpace=wrap;html=1;fontSize=18;" parent="1" vertex="1">
          <mxGeometry x="1420" y="210" width="120" height="60" as="geometry" />
        </mxCell>
        <mxCell id="kpo0mLoOp0xEjTUwXcK9-24" value="" style="endArrow=classic;html=1;rounded=0;" parent="1" edge="1">
          <mxGeometry width="50" height="50" relative="1" as="geometry">
            <mxPoint x="1340" y="230" as="sourcePoint" />
            <mxPoint x="1420" y="230" as="targetPoint" />
          </mxGeometry>
        </mxCell>
        <mxCell id="kpo0mLoOp0xEjTUwXcK9-25" value="ka&lt;sub&gt;x&lt;/sub&gt;" style="edgeLabel;html=1;align=center;verticalAlign=middle;resizable=0;points=[];" parent="kpo0mLoOp0xEjTUwXcK9-24" vertex="1" connectable="0">
          <mxGeometry x="0.1167" y="1" relative="1" as="geometry">
            <mxPoint x="-5" y="1" as="offset" />
          </mxGeometry>
        </mxCell>
        <mxCell id="kpo0mLoOp0xEjTUwXcK9-26" value="" style="endArrow=classic;html=1;rounded=0;" parent="1" edge="1">
          <mxGeometry width="50" height="50" relative="1" as="geometry">
            <mxPoint x="1540" y="239.8" as="sourcePoint" />
            <mxPoint x="1620" y="239.8" as="targetPoint" />
          </mxGeometry>
        </mxCell>
        <mxCell id="kpo0mLoOp0xEjTUwXcK9-27" value="kd&lt;sub&gt;3&lt;/sub&gt;" style="edgeLabel;html=1;align=center;verticalAlign=middle;resizable=0;points=[];fontStyle=2" parent="kpo0mLoOp0xEjTUwXcK9-26" vertex="1" connectable="0">
          <mxGeometry x="0.075" y="-1" relative="1" as="geometry">
            <mxPoint x="-3" y="-1" as="offset" />
          </mxGeometry>
        </mxCell>
        <mxCell id="kpo0mLoOp0xEjTUwXcK9-28" value="" style="endArrow=classic;html=1;rounded=0;" parent="1" edge="1">
          <mxGeometry width="50" height="50" relative="1" as="geometry">
            <mxPoint x="1340" y="250" as="sourcePoint" />
            <mxPoint x="1420" y="250" as="targetPoint" />
          </mxGeometry>
        </mxCell>
        <mxCell id="kpo0mLoOp0xEjTUwXcK9-29" value="kbasal&lt;sub&gt;x&lt;/sub&gt;" style="edgeLabel;html=1;align=center;verticalAlign=middle;resizable=0;points=[];" parent="kpo0mLoOp0xEjTUwXcK9-28" vertex="1" connectable="0">
          <mxGeometry x="-0.0083" relative="1" as="geometry">
            <mxPoint as="offset" />
          </mxGeometry>
        </mxCell>
        <mxCell id="kpo0mLoOp0xEjTUwXcK9-30" value="Mask appliction" style="rounded=1;whiteSpace=wrap;html=1;fontSize=18;" parent="1" vertex="1">
          <mxGeometry x="1270" y="70" width="120" height="60" as="geometry" />
        </mxCell>
        <mxCell id="kpo0mLoOp0xEjTUwXcK9-31" value="" style="curved=1;endArrow=classic;html=1;rounded=0;exitX=0.5;exitY=1;exitDx=0;exitDy=0;" parent="1" source="kpo0mLoOp0xEjTUwXcK9-30" edge="1">
          <mxGeometry width="50" height="50" relative="1" as="geometry">
            <mxPoint x="1330" y="260" as="sourcePoint" />
            <mxPoint x="1400" y="230" as="targetPoint" />
            <Array as="points">
              <mxPoint x="1330" y="170" />
              <mxPoint x="1400" y="180" />
            </Array>
          </mxGeometry>
        </mxCell>
        <mxCell id="kpo0mLoOp0xEjTUwXcK9-32" value="" style="endArrow=classic;html=1;rounded=0;entryX=0.5;entryY=0;entryDx=0;entryDy=0;" parent="1" target="kpo0mLoOp0xEjTUwXcK9-7" edge="1">
          <mxGeometry width="50" height="50" relative="1" as="geometry">
            <mxPoint x="1480" y="270" as="sourcePoint" />
            <mxPoint x="1560" y="270" as="targetPoint" />
          </mxGeometry>
        </mxCell>
        <mxCell id="kpo0mLoOp0xEjTUwXcK9-33" value="kt&lt;sub&gt;x&lt;/sub&gt;" style="edgeLabel;html=1;align=center;verticalAlign=middle;resizable=0;points=[];" parent="kpo0mLoOp0xEjTUwXcK9-32" vertex="1" connectable="0">
          <mxGeometry x="0.075" y="-1" relative="1" as="geometry">
            <mxPoint x="-3" y="-1" as="offset" />
          </mxGeometry>
        </mxCell>
      </root>
    </mxGraphModel>
  </diagram>
</mxfile>
